# xmcd
#
# Track frame offsets:
#	150
#	19985
#	36004
#	53626
#	72749
#	91068
#	107551
#	125954
#	141515
#	160426
#	178205
#	202406
#	227198
#
# Disc length: 3295 seconds
#
# Revision: 0
# Processed by: cddbd v1.5.2PL0 Copyright (c) Steve Scherf et al.
# Submitted via: EasyCDDAExtractor 16.0.1.1
#
DISCID=cb0cdd0d
DTITLE=Cory Branan - Mutt
DYEAR=2012
DGENRE=Alt-Country
TTITLE0=The Corner
TTITLE1=Survivor Blues
TTITLE2=Bad Man
TTITLE3=Darken My Door
TTITLE4=There There, Little Heartbreaker
TTITLE5=The Snowman
TTITLE6=Yesterday (Circa Summer 80 Somethin)
TTITLE7=Karen's Song
TTITLE8=The Freefall
TTITLE9=Jericho
TTITLE10=Hold Me Down
TTITLE11=Lily
TTITLE12=Survivor Blues (the After Hours)
EXTD=
EXTT0=
EXTT1=
EXTT2=
EXTT3=
EXTT4=
EXTT5=
EXTT6=
EXTT7=
EXTT8=
EXTT9=
EXTT10=
EXTT11=
EXTT12=
PLAYORDER=
